<svg width="26" height="27" viewBox="0 0 26 27" fill="none" xmlns="http://www.w3.org/2000/svg">
<path d="M7.66667 20.6667H18.3333M11.6903 1.68536L2.64719 8.71886C2.04269 9.18902 1.74045 9.4241 1.5227 9.71851C1.32982 9.97929 1.18614 10.2731 1.0987 10.5854C1 10.9381 1 11.321 1 12.0868V21.7333C1 23.2268 1 23.9736 1.29065 24.544C1.54631 25.0457 1.95426 25.4537 2.45603 25.7094C3.02646 26 3.77319 26 5.26667 26H20.7333C22.2268 26 22.9735 26 23.544 25.7094C24.0457 25.4537 24.4537 25.0457 24.7094 24.544C25 23.9736 25 23.2268 25 21.7333V12.0868C25 11.321 25 10.9381 24.9013 10.5854C24.8139 10.2731 24.6702 9.97929 24.4773 9.71851C24.2596 9.4241 23.9573 9.18902 23.3528 8.71886L14.3097 1.68536C13.8413 1.32103 13.6071 1.13886 13.3485 1.06883C13.1203 1.00704 12.8797 1.00704 12.6515 1.06883C12.3929 1.13886 12.1587 1.32102 11.6903 1.68536Z" stroke="#82808F" stroke-width="2" stroke-linecap="round" stroke-linejoin="round"/>
</svg>
