<svg width="160" height="48" viewBox="0 0 160 48" fill="none" xmlns="http://www.w3.org/2000/svg">
<path d="M9.596 31.5C9.32048 31.501 9.04786 31.4437 8.796 31.332C7.37072 30.7079 6.15811 29.6822 5.30638 28.3801C4.45466 27.078 4.0007 25.5559 4 24C4.00206 22.2264 4.59241 20.5037 5.67854 19.1016C6.76467 17.6995 8.28523 16.6973 10.002 16.252L10 16C10 9.38201 15.382 4.00001 22 4.00001C24.8341 3.99632 27.5773 5.00022 29.7396 6.83239C31.9018 8.66457 33.3424 11.2057 33.804 14.002C33.892 14.525 33.7686 15.0615 33.4611 15.4936C33.1535 15.9257 32.687 16.2179 32.164 16.306C31.6415 16.3902 31.1069 16.2653 30.6757 15.9584C30.2446 15.6515 29.9515 15.1873 29.86 14.666C29.5531 12.8033 28.5942 11.1103 27.1544 9.88926C25.7147 8.66821 23.8878 7.99861 22 8.00001C20.8117 8.00079 19.6385 8.266 18.5655 8.77642C17.4924 9.28684 16.5464 10.0297 15.796 10.951C15.0456 11.8724 14.5097 12.9492 14.227 14.1034C13.9444 15.2576 13.9222 16.4602 14.162 17.624L14.68 20.164L11.818 19.988C9.794 20 8 21.794 8 24C8 25.59 8.942 27.03 10.4 27.668C10.8208 27.8523 11.1653 28.1759 11.3757 28.5843C11.586 28.9927 11.6494 29.4611 11.555 29.9107C11.4607 30.3603 11.2144 30.7637 10.8577 31.0532C10.5009 31.3426 10.0554 31.5004 9.596 31.5ZM38 14C37.4696 14 36.9609 14.2107 36.5858 14.5858C36.2107 14.9609 36 15.4696 36 16C36 16.5304 36.2107 17.0391 36.5858 17.4142C36.9609 17.7893 37.4696 18 38 18C38.5304 18 39.0391 18.2107 39.4142 18.5858C39.7893 18.9609 40 19.4696 40 20C40 20.5304 39.7893 21.0391 39.4142 21.4142C39.0391 21.7893 38.5304 22 38 22H18.8C18.2696 22 17.7609 22.2107 17.3858 22.5858C17.0107 22.9609 16.8 23.4696 16.8 24C16.8 24.5304 17.0107 25.0391 17.3858 25.4142C17.7609 25.7893 18.2696 26 18.8 26H28C28.5304 26 29.0391 26.2107 29.4142 26.5858C29.7893 26.9609 30 27.4696 30 28C30 28.5304 29.7893 29.0391 29.4142 29.4142C29.0391 29.7893 28.5304 30 28 30H18C14.692 30 12 32.692 12 36C12 39.308 14.692 42 18 42C18.5304 42 19.0391 41.7893 19.4142 41.4142C19.7893 41.0392 20 40.5304 20 40C20 39.4696 19.7893 38.9609 19.4142 38.5858C19.0391 38.2107 18.5304 38 18 38C17.4696 38 16.9609 37.7893 16.5858 37.4142C16.2107 37.0392 16 36.5304 16 36C16 35.4696 16.2107 34.9609 16.5858 34.5858C16.9609 34.2107 17.4696 34 18 34H28C31.308 34 34 31.308 34 28C34 27.294 33.856 26.628 33.63 26H38C41.308 26 44 23.308 44 20C44 16.692 41.308 14 38 14Z" fill="white"/>
<path d="M57.856 33L52.408 16.056H56.152L60.136 29.088H58.672L62.56 16.056H65.512L69.4 29.088H67.96L71.92 16.056H75.64L70.192 33H67.24L63.328 19.968H64.72L60.808 33H57.856ZM81.3629 33.264C80.0989 33.264 78.9709 33.008 77.9789 32.496C77.0029 31.968 76.2349 31.24 75.6749 30.312C75.1149 29.384 74.8349 28.336 74.8349 27.168C74.8349 26 75.1069 24.96 75.6509 24.048C76.2109 23.12 76.9629 22.392 77.9069 21.864C78.8509 21.336 79.9149 21.072 81.0989 21.072C82.2509 21.072 83.2669 21.32 84.1469 21.816C85.0269 22.312 85.7149 23 86.2109 23.88C86.7229 24.76 86.9789 25.768 86.9789 26.904C86.9789 27.112 86.9629 27.336 86.9309 27.576C86.9149 27.8 86.8749 28.064 86.8109 28.368L76.7549 28.392V25.872L85.2509 25.848L83.6669 26.904C83.6509 26.232 83.5469 25.68 83.3549 25.248C83.1629 24.8 82.8749 24.464 82.4909 24.24C82.1229 24 81.6669 23.88 81.1229 23.88C80.5469 23.88 80.0429 24.016 79.6109 24.288C79.1949 24.544 78.8669 24.912 78.6269 25.392C78.4029 25.872 78.2909 26.456 78.2909 27.144C78.2909 27.832 78.4109 28.424 78.6509 28.92C78.9069 29.4 79.2589 29.776 79.7069 30.048C80.1709 30.304 80.7149 30.432 81.3389 30.432C81.9149 30.432 82.4349 30.336 82.8989 30.144C83.3629 29.936 83.7709 29.632 84.1229 29.232L86.1389 31.248C85.5629 31.92 84.8669 32.424 84.0509 32.76C83.2349 33.096 82.3389 33.264 81.3629 33.264ZM93.3833 33.24C92.3113 33.24 91.3513 32.976 90.5033 32.448C89.6713 31.92 89.0073 31.2 88.5113 30.288C88.0313 29.376 87.7913 28.336 87.7913 27.168C87.7913 26 88.0313 24.96 88.5113 24.048C89.0073 23.136 89.6713 22.416 90.5033 21.888C91.3513 21.36 92.3113 21.096 93.3833 21.096C94.1673 21.096 94.8713 21.248 95.4953 21.552C96.1353 21.856 96.6553 22.28 97.0553 22.824C97.4553 23.352 97.6793 23.96 97.7273 24.648V29.688C97.6793 30.376 97.4553 30.992 97.0553 31.536C96.6713 32.064 96.1593 32.48 95.5193 32.784C94.8793 33.088 94.1673 33.24 93.3833 33.24ZM94.1273 29.928C94.9113 29.928 95.5433 29.672 96.0233 29.16C96.5033 28.632 96.7433 27.968 96.7433 27.168C96.7433 26.624 96.6313 26.144 96.4073 25.728C96.1993 25.312 95.8953 24.992 95.4953 24.768C95.1113 24.528 94.6633 24.408 94.1513 24.408C93.6393 24.408 93.1833 24.528 92.7833 24.768C92.3993 24.992 92.0873 25.312 91.8473 25.728C91.6233 26.144 91.5113 26.624 91.5113 27.168C91.5113 27.696 91.6233 28.168 91.8473 28.584C92.0713 29 92.3833 29.328 92.7833 29.568C93.1833 29.808 93.6313 29.928 94.1273 29.928ZM96.5993 33V29.856L97.1513 27.024L96.5993 24.192V21.336H100.199V33H96.5993ZM104.201 33V16.512H107.873V33H104.201ZM101.561 24.456V21.336H110.513V24.456H101.561ZM119.595 33V26.352C119.595 25.744 119.403 25.256 119.019 24.888C118.651 24.504 118.179 24.312 117.603 24.312C117.203 24.312 116.851 24.4 116.547 24.576C116.243 24.736 116.003 24.976 115.827 25.296C115.651 25.6 115.563 25.952 115.563 26.352L114.147 25.656C114.147 24.744 114.339 23.944 114.723 23.256C115.107 22.568 115.643 22.04 116.331 21.672C117.019 21.288 117.811 21.096 118.707 21.096C119.619 21.096 120.419 21.288 121.107 21.672C121.795 22.04 122.323 22.56 122.691 23.232C123.075 23.888 123.267 24.656 123.267 25.536V33H119.595ZM111.891 33V15.576H115.563V33H111.891ZM131.145 33.264C129.881 33.264 128.753 33.008 127.761 32.496C126.785 31.968 126.017 31.24 125.457 30.312C124.897 29.384 124.617 28.336 124.617 27.168C124.617 26 124.889 24.96 125.433 24.048C125.993 23.12 126.745 22.392 127.689 21.864C128.633 21.336 129.697 21.072 130.881 21.072C132.033 21.072 133.049 21.32 133.929 21.816C134.809 22.312 135.497 23 135.993 23.88C136.505 24.76 136.761 25.768 136.761 26.904C136.761 27.112 136.745 27.336 136.713 27.576C136.697 27.8 136.657 28.064 136.593 28.368L126.537 28.392V25.872L135.033 25.848L133.449 26.904C133.433 26.232 133.329 25.68 133.137 25.248C132.945 24.8 132.657 24.464 132.273 24.24C131.905 24 131.449 23.88 130.905 23.88C130.329 23.88 129.825 24.016 129.393 24.288C128.977 24.544 128.649 24.912 128.409 25.392C128.185 25.872 128.073 26.456 128.073 27.144C128.073 27.832 128.193 28.424 128.433 28.92C128.689 29.4 129.041 29.776 129.489 30.048C129.953 30.304 130.497 30.432 131.121 30.432C131.697 30.432 132.217 30.336 132.681 30.144C133.145 29.936 133.553 29.632 133.905 29.232L135.921 31.248C135.345 31.92 134.649 32.424 133.833 32.76C133.017 33.096 132.121 33.264 131.145 33.264ZM138.293 33V21.336H141.965V33H138.293ZM141.965 26.592L140.429 25.392C140.733 24.032 141.245 22.976 141.965 22.224C142.685 21.472 143.685 21.096 144.965 21.096C145.525 21.096 146.013 21.184 146.429 21.36C146.861 21.52 147.237 21.776 147.557 22.128L145.373 24.888C145.213 24.712 145.013 24.576 144.773 24.48C144.533 24.384 144.261 24.336 143.957 24.336C143.349 24.336 142.861 24.528 142.493 24.912C142.141 25.28 141.965 25.84 141.965 26.592ZM151.802 33.048L147.002 21.336H150.962L154.01 30.624H152.546L155.666 21.336H159.626L154.634 33.048H151.802ZM148.802 37.92L152.306 30.36L154.634 33.048L152.57 37.92H148.802Z" fill="white"/>
</svg>
