<svg width="16" height="20" viewBox="0 0 16 20" fill="none" xmlns="http://www.w3.org/2000/svg">
<path d="M16 14.2461C16 13.9507 15.9418 13.6581 15.8287 13.3852C15.7156 13.1123 15.5499 12.8643 15.3409 12.6555C15.132 12.4466 14.8839 12.281 14.611 12.168C14.338 12.055 14.0454 11.997 13.75 11.9971H2.25C1.95449 11.997 1.66185 12.0551 1.38881 12.1681C1.11577 12.2811 0.867675 12.4468 0.658717 12.6558C0.449759 12.8648 0.28403 13.1129 0.171004 13.3859C0.057977 13.6589 -0.000131204 13.9516 2.22441e-07 14.2471V15.1671C2.22441e-07 15.7381 0.178 16.2961 0.51 16.7621C2.053 18.9261 4.575 19.9981 7.996 19.9981C11.416 19.9981 13.941 18.9271 15.486 16.7631C15.8195 16.2973 15.9992 15.739 16 15.1661V14.2471V14.2461ZM12.997 5.00209C12.9971 3.94905 12.6648 2.92284 12.0474 2.0698C11.4299 1.21676 10.5589 0.580438 9.55855 0.251563C8.55818 -0.077313 7.47951 -0.0819497 6.47634 0.238314C5.47318 0.558578 4.59675 1.18739 3.972 2.03509C3.89954 2.01214 3.82401 2.00034 3.748 2.00009H1.25C1.05109 2.00009 0.860322 2.07911 0.71967 2.21976C0.579018 2.36041 0.5 2.55118 0.5 2.75009V8.24809C0.499737 8.60939 0.570674 8.96721 0.708757 9.30108C0.84684 9.63496 1.04936 9.93835 1.30475 10.1939C1.56014 10.4495 1.86338 10.6522 2.19716 10.7906C2.53093 10.9289 2.8887 11.0001 3.25 11.0001H3.5V10.9961H3.51C3.67942 10.9964 3.84613 10.9535 3.9944 10.8715C4.14268 10.7895 4.26764 10.6712 4.35752 10.5276C4.44741 10.3839 4.49925 10.2198 4.50817 10.0506C4.51708 9.88142 4.48278 9.71275 4.40849 9.56048C4.3342 9.40821 4.22236 9.27736 4.08353 9.18026C3.94469 9.08316 3.78342 9.023 3.6149 9.00546C3.44639 8.98791 3.27618 9.01356 3.12032 9.07997C2.96446 9.14639 2.82807 9.25139 2.724 9.38509C2.50744 9.28464 2.32418 9.12427 2.19588 8.92296C2.06758 8.72165 1.99961 8.48781 2 8.24909V8.00009H2.748C3.128 8.00009 3.481 7.87809 3.768 7.67209C4.34639 8.58906 5.20715 9.29319 6.22056 9.67837C7.23396 10.0636 8.34511 10.1089 9.38655 9.80763C10.428 9.50634 11.3433 8.87471 11.9945 8.00795C12.6457 7.14118 12.9975 6.08623 12.997 5.00209ZM2.997 4.89609C2.99554 4.96675 2.99554 5.03743 2.997 5.10809V6.24909C2.997 6.31539 2.97066 6.37898 2.92378 6.42587C2.87689 6.47275 2.8133 6.49909 2.747 6.49909H2V3.50109H2.998V4.89609H2.997Z" fill="white"/>
</svg>
